<?xml version="1.0" encoding="UTF-8" standalone="no"?>
<svg
   xmlns:dc="http://purl.org/dc/elements/1.1/"
   xmlns:cc="http://creativecommons.org/ns#"
   xmlns:rdf="http://www.w3.org/1999/02/22-rdf-syntax-ns#"
   xmlns:svg="http://www.w3.org/2000/svg"
   xmlns="http://www.w3.org/2000/svg"
   viewBox="0 0 188.976 188.976"
   height="188.976"
   width="188.976"
   xml:space="preserve"
   id="svg2"
   version="1.1"><metadata
     id="metadata8"><rdf:RDF><cc:Work
         rdf:about=""><dc:format>image/svg+xml</dc:format><dc:type
           rdf:resource="http://purl.org/dc/dcmitype/StillImage" /></cc:Work></rdf:RDF></metadata><defs
     id="defs6"><clipPath
       id="clipPath18"
       clipPathUnits="userSpaceOnUse"><path
         id="path16"
         d="M 0,141.732 H 141.732 V 0 H 0 Z" /></clipPath></defs><g
     transform="matrix(1.3333333,0,0,-1.3333333,0,188.976)"
     id="g10"><g
       id="g12"><g
         clip-path="url(#clipPath18)"
         id="g14"><g
           transform="translate(56.105,99.0028)"
           id="g20"><path
             id="path22"
             style="fill:#b6963b;fill-opacity:1;fill-rule:evenodd;stroke:none"
             d="M 0,0 C -3.143,7.02 -4.761,10.315 -4.761,20.597 -0.309,20.001 2.771,1.543 10.454,-3.544 V -13.687 C 10.454,-17.099 0.646,-1.444 0,0 m -9.31,-2.412 c -1.536,0.636 -3.44,1.816 -5.132,2.17 -1.717,0.36 -4.065,0.89 -4.925,2.176 l 4.868,-0.406 c 5.527,0 6.729,1.656 9.891,-1.47 0.552,-0.546 4.922,-7.25 4.716,-7.456 -0.146,-0.146 -8.223,4.491 -9.418,4.986 m -2.847,11.055 0.657,4.252 c 0.759,-0.066 3.389,-2.701 3.728,-3.22 1.435,-2.194 1.709,-1.445 1.997,-4.901 -0.636,1.655 -6.414,2.645 -6.382,3.869 m 1.107,15.606 c 5.274,-0.118 4.869,-7.075 4.869,-12.578 -0.689,0.184 -4.607,3.251 -4.797,3.927 -0.249,0.882 -0.072,7.214 -0.072,8.651 m 20.49,-5.68 v 1.419 c 0,0.086 0.776,3.249 0.901,4.374 0.257,2.327 0.071,2.728 0.743,2.762 l 3.763,-3.519 c 0.398,-0.477 0.679,-0.848 0.679,-0.979 v -1.421 c 0,-1.665 -2.481,-7.47 -4.058,-7.505 -0.274,0.572 -2.028,4.732 -2.028,4.869 M 21.562,1.781 c 3.214,3.421 3.518,3.534 7.968,5.624 2.031,0.953 5.578,4.814 6.743,6.848 1.505,2.629 3.25,5.96 6.64,6.75 0.158,-1.9 0.107,-4.493 0.014,-6.912 -0.094,-2.452 -1.971,-2.544 -3.56,-3.54 C 32.792,6.428 30.061,1.189 26.523,-5.412 25.616,-7.105 23.89,-7.567 22.416,-8.607 c -1.276,-0.9 -2.442,-2.652 -3.644,-3.457 -3.625,3.15 0.379,11.28 2.79,13.845 m 3.612,13.834 c 1.457,0.924 11.709,8.742 12.684,7.767 C 39.521,21.719 31.089,11.901 29.982,10.807 27.736,8.585 25.923,8.425 23.267,6.973 20.264,5.33 19.523,3.996 17.351,2.542 c 0,5.472 4.407,10.903 7.823,13.073 m 24.302,-1.731 6.422,0.673 C 55.765,7.174 51.255,5.288 46.233,2.671 45.243,2.154 30.502,-3.341 30.335,-3.341 c 3.088,4.612 3.711,7.229 8.763,10.51 3.015,1.957 6.155,5.763 10.378,6.715 M 60.393,1.328 c 1.257,-0.891 -3.451,-3.459 -4.249,-3.699 -1.74,-0.523 -6.404,-0.16 -8.574,-0.149 -2.29,0.011 -5.786,-0.821 -7.903,-0.821 0.813,0.516 12.268,6.289 12.375,6.289 h 1.217 c 0.078,0 7.11,-1.604 7.134,-1.62 M -38.64,-29.712 H 67.663 c 0.467,0 0.609,0.14 0.609,0.608 v 4.057 c 0,1.112 -19.003,0.609 -21.505,0.609 H 24.655 c -0.486,2.085 0.729,9.04 1.698,10.27 1.35,1.716 5.237,4.133 8.039,4.133 h 6.087 c 1.44,-0.207 26.575,-4.674 26.575,1.826 -1.138,-0.095 -5.044,-1.623 -6.694,-1.623 -9.107,0 -15.607,0.925 -24.968,2.556 -0.067,-0.106 -0.141,-0.21 -0.188,-0.325 l 0.06,0.347 c 0.044,-0.007 0.085,-0.014 0.128,-0.022 3.296,5.225 30.851,-0.127 30.851,5.558 -2.055,0 -3.805,-1.217 -6.086,-1.217 1.959,2.651 4.463,4.649 4.463,8.114 0,0.44 -0.532,1.013 -0.812,1.218 -0.932,-0.683 -1.346,-3.855 -2.637,-3.855 -1.265,0 -4.469,0.828 -5.804,2.068 1.484,0.033 7.081,5.054 5.804,7.467 L 55.92,7.415 c 1.052,2.532 1.728,5.154 1.714,7.687 l 1.315,0.838 -1.015,1.015 -0.462,-0.263 c 0,1.529 -1.245,3.659 -1.65,2.957 -0.599,-1.034 0.18,-2.685 -0.152,-3.645 l -5.446,-0.903 4.128,6.468 -1.23,1.144 c -1.95,-2.901 -1.374,-2.709 -3.971,-5.311 -0.972,-0.974 -3.412,-3.695 -4.868,-3.816 l 0.002,8.434 5.89,2.504 c 0.721,0.347 1.308,0.85 0.032,0.676 -3.147,-0.429 -8.606,-2.926 -9.027,-2.864 -1.347,0.197 3.39,5.361 6.602,5.361 -0.24,2.878 -2.637,-1.628 -2.637,2.232 l -0.217,0.062 -0.604,-2.088 c -0.176,-0.127 -3.643,-2.967 -3.82,-2.967 0.671,2.079 0.64,2.697 0.882,5.138 0.115,1.155 0.642,3.204 -0.674,2.894 -2.445,-0.575 0.782,-7.054 -4.697,-8.517 l -7.04,-2.972 c -0.037,0.412 2.035,5.497 2.266,5.717 0.708,0.675 1.314,0.849 2.457,1.899 2.235,2.053 4.815,6.871 2.709,5.967 -0.324,-0.139 -2.67,-3.807 -4.391,-4.717 0.699,2.025 1.192,4.05 0.956,6.075 0,0.581 -1.327,1.555 -1.678,-0.548 -0.143,-0.852 -0.287,-1.818 -0.581,-2.67 -0.624,-1.81 -1.217,-3.109 -1.886,-4.808 -1.314,-3.332 -3.125,-5.731 -4.984,-8.406 -0.396,1.7 -0.864,9.996 -0.598,10.73 0.947,2.613 4.511,6.987 4.656,7.528 0.033,0.526 -0.268,0.717 -0.901,0.576 -0.87,-1.027 -1.74,-2.054 -2.609,-3.081 0.193,1.192 0.386,2.383 0.579,3.575 -0.863,0.604 -1.392,0.608 -1.588,0.012 -0.035,-0.748 -0.071,-1.496 -0.107,-2.244 0.17,-1.513 -0.685,-3.594 -1.457,-4.16 -0.517,1.076 -2.68,7.148 -3.655,7.148 h -0.812 c -1.115,0 1.438,-4.441 1.957,-5.753 2.062,-5.217 1.695,-10.268 1.695,-15.75 0,-5.95 -5.509,-6.313 -6.694,-10.752 -1.299,0.108 -1.53,2.512 -1.212,3.465 0.296,0.893 1.323,1.705 1.938,2.909 0.718,1.406 2.519,5.41 2.519,7.218 v 4.26 c 0,1.482 -1.56,5.891 -1.969,7.362 -0.328,1.179 -1.337,7.041 -2.291,7.041 h -0.608 c -1.089,0 0.912,-6.002 1.117,-6.997 0.445,-2.163 1.512,-4.999 1.519,-7.581 l -3.875,3.377 c -0.483,0.603 -0.894,1.287 -1.206,4.496 -0.083,0.852 -0.562,3.178 -1.264,4.707 -0.368,0.802 -0.798,1.385 -1.265,1.424 L 9.564,30.68 5.243,39.467 4.368,39.057 C 4.608,36.175 9.034,29.761 9.034,29.32 V 26.683 L 8.338,22.001 c -4.06,1.865 -5.62,15.076 -5.999,16.651 -0.884,0 -1.623,0.06 -1.623,-0.812 C 1.107,31.93 3.864,24.386 6.483,19.06 8.917,14.805 11.266,7.973 11.266,1.325 9.485,1.365 5.875,6.225 4.971,7.608 3.029,10.584 2.413,12.636 1.778,16.79 c -0.2,1.305 -0.438,4.662 -0.446,5.842 -0.024,3.607 -1.834,11.099 -4.365,13.458 -1.054,0.983 -1.479,0.443 -0.966,-0.71 2.275,-5.117 4.333,-9.454 3.879,-15.99 -0.852,0.071 -2.913,2.813 -3.669,3.396 -1.945,1.502 -1.553,0.812 -2.271,3.612 -0.362,1.412 -1.119,5.656 -2.363,7.265 -0.629,0.813 -1.63,0.994 -1.278,-0.276 0.501,-1.807 2.175,-5.835 1.897,-8.124 -1.698,0 -2.716,0.281 -3.855,1.42 0,0.232 -0.722,3.988 -1.643,5.228 -0.448,0.602 -0.82,0.569 -0.728,-0.359 0,-1.19 1.056,-2.763 1.056,-4.65 l -0.376,0.329 c -0.564,0.579 -2.494,3.236 -3.354,2.812 -1.441,-0.711 3.263,-3.92 4.234,-5.186 v -8.114 c -2.759,0.061 -8.266,6.705 -9.332,8.926 l -1.017,-0.397 c 0.07,-3.029 5.384,-6.836 6.495,-8.935 -0.422,0 -5.189,1.726 -5.569,1.937 -1.736,0.966 -2.708,3.036 -3.763,3.743 -2.623,-3.916 9.031,-7.897 12.578,-8.723 0,-1.402 -0.227,-4.26 -1.421,-4.26 h -0.811 c -8.822,0 -11.98,10.132 -12.781,10.346 l -0.79,-1.635 c 2.24,-4.261 3.208,-6.48 7.633,-8.765 1.908,-0.985 4.012,-1.19 6.175,-1.94 0.373,-0.13 6.364,-3.078 3.414,-3.078 h -9.129 c -3.693,0 -5.128,1.022 -7.051,2.89 -0.785,0.762 -4.571,4.926 -4.715,5.022 -1.172,-2.443 3.788,-5.075 4.26,-7.1 -2.231,0 -5.11,1.014 -5.883,1.014 h -0.811 c -0.673,0 -0.759,-0.582 -0.812,-1.217 1.352,-0.715 7.293,-1.472 9.451,-1.91 2.731,-0.554 2.072,0.011 4.258,-1.422 0.706,-0.464 2.785,-1.835 3.129,-2.348 -8.556,0.657 -14.175,0.172 -18.458,-0.833 -1.128,-2.324 3.455,-1.187 5.474,-1.195 5.481,-0.023 8.915,0.642 14.451,-0.563 1.105,-0.239 2.078,-0.486 3.194,-0.66 0.65,-0.101 2.845,-0.697 2.845,-1.415 -7.313,-1.141 -12.938,-2.231 -20.084,-2.231 -1.995,0 -5.087,1.217 -6.086,1.217 h -0.608 c 0,-2.037 1.667,-2.054 3.408,-2.273 1.415,-0.178 3.267,-0.77 4.909,-0.77 6.634,0 13.318,1.217 20.084,1.217 4.052,0 9.133,-2.186 10.611,-4.808 1.324,-2.351 4.33,-7.791 4.401,-11.015 h -22.518 -11.36 c -1.589,0 -10.55,0.491 -10.55,-0.609 v -4.057 c 0,-0.468 0.141,-0.608 0.609,-0.608" /></g><g
           transform="translate(33.9069,53.4183)"
           id="g24"><path
             id="path26"
             style="fill:#393536;fill-opacity:1;fill-rule:nonzero;stroke:none"
             d="M 0,0 H -9.919 V 5.841 H 0 v 5.975 h -15.977 v -32.192 h 6.058 V -5.893 H 0 Z" /></g><g
           transform="translate(69.7547,41.311)"
           id="g28"><path
             id="path30"
             style="fill:#393536;fill-opacity:1;fill-rule:nonzero;stroke:none"
             d="m 0,0 c -2.039,-2.099 -4.511,-3.144 -7.417,-3.144 -2.569,0 -4.84,0.806 -6.827,2.427 -2.554,2.069 -3.831,4.885 -3.831,8.448 0,3.189 1.015,5.825 3.047,7.894 2.024,2.077 4.526,3.107 7.507,3.107 2.942,0 5.445,-1.06 7.499,-3.181 C 2.039,13.429 3.07,10.838 3.07,7.768 3.07,4.69 2.046,2.106 0,0 m 4.28,19.786 c -3.272,3.294 -7.186,4.944 -11.742,4.944 -3.002,0 -5.811,-0.754 -8.41,-2.263 -2.607,-1.509 -4.653,-3.555 -6.14,-6.139 -1.486,-2.585 -2.233,-5.416 -2.233,-8.493 0,-4.593 1.599,-8.559 4.795,-11.898 3.197,-3.346 7.208,-5.012 12.033,-5.012 4.608,0 8.53,1.621 11.764,4.877 3.234,3.25 4.847,7.231 4.847,11.929 0,4.735 -1.635,8.753 -4.914,12.055" /></g><g
           transform="translate(94.83,53.4183)"
           id="g32"><path
             id="path34"
             style="fill:#393536;fill-opacity:1;fill-rule:nonzero;stroke:none"
             d="m 0,0 c -0.739,-0.515 -2.084,-0.769 -4.041,-0.769 h -1.927 v 6.588 h 1.688 c 1.636,0 2.756,-0.113 3.369,-0.344 C -0.299,5.251 0.187,4.878 0.553,4.362 0.919,3.847 1.098,3.234 1.098,2.532 1.098,1.352 0.732,0.508 0,0 M 8.545,-20.376 0.926,-6.065 c 2.039,0.732 3.571,1.808 4.586,3.227 1.016,1.426 1.516,3.189 1.516,5.31 0,2.01 -0.455,3.757 -1.374,5.229 -0.919,1.471 -2.136,2.525 -3.645,3.159 -1.508,0.635 -4.041,0.956 -7.603,0.956 h -6.498 v -32.192 h 6.124 V -6.744 H -5.4 l 7.245,-13.632 z" /></g><path
           id="path36"
           style="fill:#393536;fill-opacity:1;fill-rule:nonzero;stroke:none"
           d="m 42.595,65.235 h -6.08 V 33.043 h 6.08 z" /><g
           transform="translate(123.5056,39.0628)"
           id="g38"><path
             id="path40"
             style="fill:#393536;fill-opacity:1;fill-rule:nonzero;stroke:none"
             d="M 0,0 H -11.487 V 8.463 H 0 v 5.892 h -11.487 v 5.819 H 0 v 5.998 H -17.575 V -6.02 H 0 Z" /></g><g
           transform="translate(74.3344,13.519)"
           id="g42"><path
             id="path44"
             style="fill:#393536;fill-opacity:1;fill-rule:nonzero;stroke:none"
             d="m 0,0 c -0.434,-0.237 -0.898,-0.352 -1.39,-0.352 -1.155,0 -2.173,0.826 -3.054,2.478 L -5.695,1.363 c 0.615,-1.143 1.285,-1.959 2.013,-2.447 0.727,-0.488 1.537,-0.728 2.432,-0.728 1.161,0 2.145,0.4 2.958,1.202 0.81,0.805 1.216,1.75 1.216,2.841 0,0.756 -0.239,1.505 -0.71,2.255 C 1.739,5.235 0.865,6.089 -0.41,7.051 -1.483,7.86 -2.118,8.362 -2.313,8.55 c -0.352,0.362 -0.594,0.693 -0.731,1 -0.133,0.307 -0.198,0.624 -0.198,0.952 0,0.536 0.188,0.99 0.564,1.356 0.379,0.369 0.864,0.554 1.459,0.554 0.457,0 0.884,-0.122 1.274,-0.359 0.389,-0.237 0.864,-0.732 1.417,-1.482 l 1.199,0.931 c -0.673,0.938 -1.311,1.586 -1.916,1.935 -0.601,0.352 -1.25,0.526 -1.947,0.526 -0.653,0 -1.257,-0.153 -1.814,-0.464 -0.557,-0.31 -0.991,-0.735 -1.298,-1.272 -0.308,-0.537 -0.458,-1.133 -0.458,-1.788 0,-0.822 0.26,-1.59 0.779,-2.297 C -3.682,7.72 -2.917,7.037 -1.691,6.089 -0.471,5.151 0.369,4.346 0.83,3.681 1.165,3.196 1.332,2.705 1.332,2.199 1.332,1.757 1.219,1.339 0.991,0.945 0.765,0.547 0.434,0.234 0,0" /></g><g
           transform="translate(95.369,25.6241)"
           id="g46"><path
             id="path48"
             style="fill:#393536;fill-opacity:1;fill-rule:nonzero;stroke:none"
             d="m 0,0 v 1.481 h -8.438 v -15.022 h 8.38 v 1.481 h -6.908 v 5.891 h 6.908 v 1.471 H -6.966 V 0 Z" /></g><g
           transform="translate(82.6141,12.083)"
           id="g50"><path
             id="path52"
             style="fill:#393536;fill-opacity:1;fill-rule:nonzero;stroke:none"
             d="m 0,0 v 13.562 h 3.283 v 1.46 h -8.076 v -1.46 H -1.5 L -1.5,0 Z" /></g><path
           id="path54"
           style="fill:#393536;fill-opacity:1;fill-rule:nonzero;stroke:none"
           d="m 109.441,27.105 h -1.472 V 12.083 h 1.472 z" /><g
           transform="translate(117.5569,23.9195)"
           id="g56"><path
             id="path58"
             style="fill:#393536;fill-opacity:1;fill-rule:nonzero;stroke:none"
             d="m 0,0 2.504,-5.444 h -5.035 z m -3.191,-6.894 h 6.344 l 2.313,-4.943 H 7.047 L 0.181,3.186 h -0.359 l -6.955,-15.023 h 1.64 z" /></g><g
           transform="translate(44.3027,23.9195)"
           id="g60"><path
             id="path62"
             style="fill:#393536;fill-opacity:1;fill-rule:nonzero;stroke:none"
             d="m 0,0 2.504,-5.444 h -5.036 z m -3.191,-6.894 h 6.344 l 2.313,-4.943 H 7.047 L 0.181,3.186 h -0.359 l -6.955,-15.023 h 1.64 z" /></g><g
           transform="translate(29.2692,13.5539)"
           id="g64"><path
             id="path66"
             style="fill:#393536;fill-opacity:1;fill-rule:nonzero;stroke:none"
             d="M 0,0 V 5.758 H 0.83 C 2.07,5.758 2.941,5.699 3.443,5.573 4.192,5.392 4.776,5.05 5.203,4.555 5.63,4.057 5.845,3.475 5.845,2.809 5.845,2.276 5.694,1.784 5.391,1.328 5.086,0.871 4.683,0.537 4.184,0.321 3.682,0.108 2.897,0 1.821,0 Z m 0,12.081 h 1.701 c 1.028,0 1.776,-0.196 2.248,-0.589 C 4.417,11.101 4.653,10.561 4.653,9.874 4.653,9.362 4.513,8.898 4.232,8.48 3.952,8.062 3.573,7.755 3.091,7.56 2.613,7.368 1.862,7.271 0.84,7.271 H 0 Z M 6.081,-0.22 C 6.945,0.613 7.375,1.635 7.375,2.837 7.375,3.43 7.259,3.98 7.031,4.486 6.801,4.995 6.48,5.427 6.064,5.786 5.65,6.141 5.059,6.452 4.294,6.72 c 0.618,0.338 1.09,0.784 1.411,1.332 0.321,0.547 0.482,1.153 0.482,1.822 0,0.715 -0.185,1.363 -0.547,1.949 -0.366,0.585 -0.861,1.021 -1.486,1.303 -0.629,0.283 -1.524,0.426 -2.692,0.426 H -1.442 V -1.471 h 4.045 c 1.455,0 2.614,0.419 3.478,1.251" /></g><g
           transform="translate(98.3775,25.6346)"
           id="g68"><path
             id="path70"
             style="fill:#393536;fill-opacity:1;fill-rule:nonzero;stroke:none"
             d="M 0,0 H 2.589 C 3.597,0 4.318,-0.091 4.752,-0.265 5.186,-0.443 5.537,-0.739 5.804,-1.15 6.07,-1.562 6.203,-2.018 6.203,-2.523 6.203,-3.039 6.07,-3.51 5.807,-3.928 5.544,-4.346 5.179,-4.65 4.708,-4.841 4.236,-5.033 3.512,-5.127 2.531,-5.127 L 0,-5.106 Z m 0,-6.567 h 0.84 l 5.281,-6.985 h 1.825 l -5.295,6.985 c 1.233,0.007 2.2,0.168 2.9,0.485 0.704,0.317 1.24,0.784 1.619,1.405 0.376,0.62 0.564,1.338 0.564,2.154 0,0.979 -0.273,1.805 -0.82,2.478 C 6.368,0.624 5.657,1.06 4.782,1.265 4.202,1.401 3.095,1.471 1.458,1.471 H -1.473 V -13.552 H 0 Z" /></g><g
           transform="translate(52.873,27.1055)"
           id="g72"><path
             id="path74"
             style="fill:#393536;fill-opacity:1;fill-rule:nonzero;stroke:none"
             d="m 0,0 h -0.321 v -15.022 h 1.523 v 11.355 l 9.706,-11.355 h 0.331 V 0 H 9.787 v -11.499 z" /></g><g
           transform="translate(26.3322,25.6241)"
           id="g76"><path
             id="path78"
             style="fill:#393536;fill-opacity:1;fill-rule:nonzero;stroke:none"
             d="m 0,0 v 1.481 h -8.438 v -15.022 h 8.38 v 1.481 h -6.907 v 5.891 h 6.907 v 1.471 H -6.965 V 0 Z" /></g><path
           id="path80"
           style="fill:#393536;fill-opacity:1;fill-rule:nonzero;stroke:none"
           d="M 67.879,27.105 H 66.407 V 12.083 h 1.472 z" /><path
           id="path82"
           style="fill:#b6963b;fill-opacity:1;fill-rule:evenodd;stroke:none"
           d="m 16.815,3.141 h 107.732 v 4.85 H 16.815 Z" /></g></g></g></svg>